<?xml version="1.0" encoding="UTF-8" standalone="no"?>
<!-- Created with Inkscape (http://www.inkscape.org/) -->

<svg
   xmlns:dc="http://purl.org/dc/elements/1.1/"
   xmlns:cc="http://creativecommons.org/ns#"
   xmlns:rdf="http://www.w3.org/1999/02/22-rdf-syntax-ns#"
   xmlns:svg="http://www.w3.org/2000/svg"
   xmlns="http://www.w3.org/2000/svg"
   xmlns:sodipodi="http://sodipodi.sourceforge.net/DTD/sodipodi-0.dtd"
   xmlns:inkscape="http://www.inkscape.org/namespaces/inkscape"
   width="600mm"
   height="400mm"
   viewBox="0 0 600 400"
   version="1.1"
   id="svg8"
   inkscape:version="0.92.2 5c3e80d, 2017-08-06"
   sodipodi:docname="zakdoekdoosje.svg">
  <defs
     id="defs2" />
  <sodipodi:namedview
     id="base"
     pagecolor="#ffffff"
     bordercolor="#666666"
     borderopacity="1.0"
     inkscape:pageopacity="0.0"
     inkscape:pageshadow="2"
     inkscape:zoom="0.98994949"
     inkscape:cx="1736.792"
     inkscape:cy="611.47598"
     inkscape:document-units="mm"
     inkscape:current-layer="layer1"
     showgrid="true"
     inkscape:window-width="1920"
     inkscape:window-height="1102"
     inkscape:window-x="0"
     inkscape:window-y="1"
     inkscape:window-maximized="1"
     inkscape:measure-start="0,0"
     inkscape:measure-end="0,0">
    <inkscape:grid
       type="xygrid"
       id="grid10"
       spacingx="4"
       spacingy="4"
       units="mm"
       visible="true" />
  </sodipodi:namedview>
  <metadata
     id="metadata5">
    <rdf:RDF>
      <cc:Work
         rdf:about="">
        <dc:format>image/svg+xml</dc:format>
        <dc:type
           rdf:resource="http://purl.org/dc/dcmitype/StillImage" />
        <dc:title />
      </cc:Work>
    </rdf:RDF>
  </metadata>
  <g
     inkscape:label="Laag 1"
     inkscape:groupmode="layer"
     id="layer1"
     transform="translate(0,103)">
    <path
       style="fill:none;fill-opacity:1;stroke:#ff0000;stroke-width:0.80000001;stroke-miterlimit:4;stroke-dasharray:none;stroke-dashoffset:0;stroke-opacity:1"
       d="m 356.00024,-95.000383 v 24.000085 H 360 v 12.000301 h -3.99976 v 19.999812 H 360 V -27.0004 h -3.99976 V -7.0000725 H 360 V 4.9997128 h -3.99976 V 28.999797 h 15.99954 v -3.999754 h 12.00031 v 3.999754 h 19.9998 v -3.999754 h 12.00031 v 3.999754 h 19.99983 v -3.999754 h 11.99978 v 3.999754 h 20.00033 v -3.999754 h 11.99978 v 3.999754 h 20.00033 v -3.999754 h 11.99978 v 3.999754 h 19.9998 v -3.999754 h 12.00031 v 3.999754 h 19.99983 v -3.999754 h 12.00028 v 3.999754 h 15.99954 V 4.9997128 h -3.99976 V -7.0000725 h 3.99976 V -27.0004 h -3.99976 v -11.999785 h 3.99976 v -19.999812 h -3.99976 v -12.000301 h 3.99976 v -24.000085 h -15.99954 v 4.000272 h -12.00028 v -4.000272 h -19.99983 v 4.000272 h -12.00031 v -4.000272 h -19.9998 v 4.000272 h -11.99978 v -4.000272 h -20.00033 v 4.000272 h -11.99978 v -4.000272 h -20.00033 v 4.000272 h -11.99978 v -4.000272 H 416.0002 v 4.000272 h -12.00031 v -4.000272 h -19.9998 v 4.000272 h -12.00031 v -4.000272 z"
       id="rect31"
       inkscape:connector-curvature="0" />
    <path
       style="fill:none;fill-opacity:1;stroke:#ff0000;stroke-width:0.80000001;stroke-miterlimit:4;stroke-dasharray:none;stroke-dashoffset:0;stroke-opacity:1"
       d="m 316.00022,-99.000082 v 3.999756 h -20.00033 v 4.000272 108.000125 3.999757 h 20.00033 V 25.0001 H 328 v -4.000272 h 20.00033 V 17.000071 1.0000137 h 3.99976 V -10.999769 h -3.99976 v -20.00033 h 3.99976 v -11.999786 h -3.99976 v -19.999811 h 3.99976 v -12.000301 h -3.99976 v -16.000057 -4.000272 H 328 v -3.999756 z"
       id="rect33"
       inkscape:connector-curvature="0" />
    <path
       id="rect35"
       transform="matrix(0.26458333,0,0,0.26458333,0,-103)"
       style="fill:none;fill-opacity:1;stroke:#ff0000;stroke-width:3.02362204;stroke-miterlimit:4;stroke-dasharray:none;stroke-dashoffset:0;stroke-opacity:1"
       d="m 1405.9824,514.01367 v 15.11914 h -60.4707 v 75.58985 h -2.4492 v 0.002 h 17.5684 v 45.35351 h -15.1192 v 75.58985 h 891.9668 v -75.58985 h -15.1172 V 604.72461 H 2238 v -0.002 h -0.5234 v -75.58985 h -60.4707 v -15.11914 h -45.3555 v 15.11914 h -75.5899 v -15.11914 h -45.3554 v 15.11914 h -75.5899 v -15.11914 h -45.3535 v 15.11914 h -75.5918 v -15.11914 h -45.3535 v 15.11914 h -75.5918 v -15.11914 h -45.3535 v 15.11914 h -75.5899 v -15.11914 h -45.3554 v 15.11914 h -75.5899 v -15.11914 z" />
    <path
       style="fill:none;fill-opacity:1;stroke:#ff0000;stroke-width:3.02362204;stroke-miterlimit:4;stroke-dasharray:none;stroke-dashoffset:0;stroke-opacity:1"
       d="M 1405.9824 755.9043 L 1405.9824 771.02344 L 1345.5117 771.02344 L 1345.5117 846.61328 L 1360.6309 846.61328 L 1360.6309 891.96875 L 1345.5117 891.96875 L 1345.5117 967.55859 L 2237.4785 967.55859 L 2237.4785 891.96875 L 2222.3613 891.96875 L 2222.3613 846.61328 L 2237.4785 846.61328 L 2237.4785 771.02344 L 2177.0078 771.02344 L 2177.0078 755.9043 L 2131.6523 755.9043 L 2131.6523 771.02344 L 2056.0625 771.02344 L 2056.0625 755.9043 L 2010.707 755.9043 L 2010.707 771.02344 L 1935.1172 771.02344 L 1935.1172 755.9043 L 1889.7637 755.9043 L 1889.7637 771.02344 L 1814.1719 771.02344 L 1814.1719 755.9043 L 1768.8184 755.9043 L 1768.8184 771.02344 L 1693.2266 771.02344 L 1693.2266 755.9043 L 1647.873 755.9043 L 1647.873 771.02344 L 1572.2832 771.02344 L 1572.2832 755.9043 L 1526.9277 755.9043 L 1526.9277 771.02344 L 1451.3379 771.02344 L 1451.3379 755.9043 L 1405.9824 755.9043 z "
       transform="matrix(0.26458333,0,0,0.26458333,0,-103)"
       id="path130" />
    <path
       id="path135"
       style="fill:none;fill-opacity:1;stroke:#ff0000;stroke-width:0.80000001;stroke-miterlimit:4;stroke-dasharray:none;stroke-dashoffset:0;stroke-opacity:1"
       d="m 315.99988,28.999915 v 3.999756 H 296.00007 V 148.99982 h 19.99981 v 4.00028 h 12.0003 v -4.00028 H 348 v -19.99981 h 3.99976 V 117.00023 H 348 V 96.999898 h 3.99976 V 85.000112 H 348 V 65.000301 h 3.99976 V 53 H 348 V 32.999671 h -19.99982 v -3.999756 z"
       inkscape:connector-curvature="0"
       sodipodi:nodetypes="ccccccccccccccccccccccccc" />
    <path
       style="fill:none;fill-opacity:1;stroke:#ff0000;stroke-width:3.02362204;stroke-miterlimit:4;stroke-dasharray:none;stroke-dashoffset:0;stroke-opacity:1"
       d="M 1315.2754 982.67773 L 1315.2754 1073.3867 L 1330.3945 1073.3867 L 1330.3945 1118.7402 L 1315.2754 1118.7402 L 1315.2754 1209.4492 L 1330.3945 1209.4492 L 1330.3945 1254.8027 L 1315.2754 1254.8027 L 1315.2754 1345.5117 L 1330.3945 1345.5117 L 1330.3945 1390.8652 L 1315.2754 1390.8652 L 1315.2754 1481.5742 L 1405.9844 1481.5742 L 1405.9844 1466.457 L 1451.3379 1466.457 L 1451.3379 1481.5742 L 1526.9297 1481.5742 L 1526.9297 1466.457 L 1572.2832 1466.457 L 1572.2832 1481.5742 L 1647.873 1481.5742 L 1647.873 1466.457 L 1693.2285 1466.457 L 1693.2285 1481.5742 L 1753.7012 1481.5742 L 1753.7012 1466.457 L 1799.0547 1466.457 L 1799.0547 1481.5742 L 1874.6465 1481.5742 L 1874.6465 1466.457 L 1920 1466.457 L 1920 1481.5742 L 1995.5898 1481.5742 L 1995.5898 1466.457 L 2040.9453 1466.457 L 2040.9453 1481.5742 L 2101.418 1481.5742 L 2101.418 1466.457 L 2146.7715 1466.457 L 2146.7715 1481.5742 L 2237.4805 1481.5742 L 2237.4805 1390.8652 L 2222.3613 1390.8652 L 2222.3613 1345.5117 L 2237.4805 1345.5117 L 2237.4805 1254.8027 L 2222.3613 1254.8027 L 2222.3613 1209.4492 L 2237.4805 1209.4492 L 2237.4805 1118.7402 L 2222.3613 1118.7402 L 2222.3613 1073.3867 L 2237.4805 1073.3867 L 2237.4805 982.67773 L 2146.7715 982.67773 L 2146.7715 997.79492 L 2101.418 997.79492 L 2101.418 982.67773 L 2025.8262 982.67773 L 2025.8262 997.79492 L 1980.4727 997.79492 L 1980.4727 982.67773 L 1920 982.67773 L 1920 997.79492 L 1874.6465 997.79492 L 1874.6465 982.67773 L 1799.0547 982.67773 L 1799.0547 997.79492 L 1753.7012 997.79492 L 1753.7012 982.67773 L 1693.2285 982.67773 L 1693.2285 997.79492 L 1647.873 997.79492 L 1647.873 982.67773 L 1572.2832 982.67773 L 1572.2832 997.79492 L 1526.9297 997.79492 L 1526.9297 982.67773 L 1451.3379 982.67773 L 1451.3379 997.79492 L 1405.9844 997.79492 L 1405.9844 982.67773 L 1315.2754 982.67773 z "
       id="rect137"
       transform="matrix(0.26458333,0,0,0.26458333,0,-103)" />
    <path
       style="fill:none;fill-opacity:1;stroke:#ff0000;stroke-width:3.02362204;stroke-miterlimit:4;stroke-dasharray:none;stroke-dashoffset:0;stroke-opacity:1"
       d="M 1224.5664 982.67773 L 1224.5664 997.79492 L 1194.3301 997.79492 L 1194.3301 1466.457 L 1224.5664 1466.457 L 1224.5664 1481.5742 L 1254.8027 1481.5742 L 1254.8027 1466.457 L 1285.0391 1466.457 L 1285.0391 1390.8652 L 1300.1562 1390.8652 L 1300.1562 1345.5117 L 1285.0391 1345.5117 L 1285.0391 1254.8027 L 1300.1562 1254.8027 L 1300.1562 1209.4492 L 1285.0391 1209.4492 L 1285.0391 1118.7402 L 1300.1562 1118.7402 L 1300.1562 1073.3867 L 1285.0391 1073.3867 L 1285.0391 997.79492 L 1254.8027 997.79492 L 1254.8027 982.67773 L 1224.5664 982.67773 z "
       transform="matrix(0.26458333,0,0,0.26458333,0,-103)"
       id="rect139" />
    <path
       style="fill:none;fill-opacity:1;stroke:#ff0000;stroke-width:3.02362204;stroke-miterlimit:4;stroke-dasharray:none;stroke-dashoffset:0;stroke-opacity:1"
       d="M 1103.6211 982.67773 L 1103.6211 997.79492 L 1073.3867 997.79492 L 1073.3867 1466.457 L 1103.6211 1466.457 L 1103.6211 1481.5742 L 1133.8574 1481.5742 L 1133.8574 1466.457 L 1164.0938 1466.457 L 1164.0938 1390.8652 L 1179.2109 1390.8652 L 1179.2109 1345.5117 L 1164.0938 1345.5117 L 1164.0938 1254.8027 L 1179.2109 1254.8027 L 1179.2109 1209.4492 L 1164.0938 1209.4492 L 1164.0938 1118.7402 L 1179.2109 1118.7402 L 1179.2109 1073.3867 L 1164.0938 1073.3867 L 1164.0938 997.79492 L 1133.8574 997.79492 L 1133.8574 982.67773 L 1103.6211 982.67773 z "
       transform="matrix(0.26458333,0,0,0.26458333,0,-103)"
       id="path210" />
    <path
       style="fill:none;fill-opacity:1;stroke:#ff0000;stroke-width:0.80000001;stroke-miterlimit:4;stroke-dasharray:none;stroke-dashoffset:0;stroke-opacity:1"
       d="m 263.99961,-95.000446 v 4.000273 235.999543 4.00027 h 8.00003 v -4.00027 h 8.00002 v 4.00027 h 8.00005 v -24.00008 h 4.00026 v -11.99978 h -4.00026 V 92.999446 h 4.00026 V 80.999661 h -4.00026 V 64.999606 h 4.00026 V 52.999305 h -4.00026 V 32.99949 h 4.00026 V 20.999708 h -4.00026 V 4.99965 h 4.00026 V -7.0006513 h -4.00026 V -27.000463 h 4.00026 v -11.999785 h -4.00026 v -20.000328 h 4.00026 v -11.999785 h -4.00026 v -24.000085 h -8.00005 v 3.999756 h -8.00002 v -3.999756 z"
       id="path6334"
       inkscape:connector-curvature="0" />
    <path
       id="path6360"
       d="m 231.99965,-95.000265 v 4.000272 235.999543 4.00027 h 8.00003 v -4.00027 h 8.00001 v 4.00027 h 8.00005 V 124.99973 H 260 v -11.99978 h -4.00026 V 92.999627 H 260 V 80.999841 h -4.00026 V 64.999786 H 260 V 52.999485 h -4.00026 V 32.999671 H 260 V 20.999888 h -4.00026 V 4.9998303 H 260 V -7.0004709 h -4.00026 V -27.000283 H 260 v -11.999785 h -4.00026 V -59.000395 H 260 v -11.999786 h -4.00026 v -24.000084 h -8.00005 v 3.999756 h -8.00001 v -3.999756 z"
       style="fill:none;fill-opacity:1;stroke:#ff0000;stroke-width:0.80000001;stroke-miterlimit:4;stroke-dasharray:none;stroke-dashoffset:0;stroke-opacity:1"
       inkscape:connector-curvature="0" />
    <ellipse
       style="fill:none;fill-opacity:0.22326929;stroke:#ff0000;stroke-width:1.25314987;stroke-miterlimit:4;stroke-dasharray:none;stroke-dashoffset:0;stroke-opacity:1"
       id="path7230"
       cx="470"
       cy="222.99998"
       rx="66.873428"
       ry="19.373425" />
    <flowRoot
       xml:space="preserve"
       id="flowRoot824"
       style="font-style:normal;font-weight:normal;font-size:40px;line-height:1.25;font-family:sans-serif;letter-spacing:0px;word-spacing:0px;fill:#000000;fill-opacity:1;stroke:none"
       transform="matrix(0.26458333,0,0,0.26458333,-8.8198944,-106.4745)"><flowRegion
         id="flowRegion826"><rect
           id="rect828"
           width="680.31494"
           height="90.708694"
           x="1421.1024"
           y="1058.2677" /></flowRegion><flowPara
         id="flowPara830"
         style="font-style:normal;font-variant:normal;font-weight:normal;font-stretch:normal;font-size:64px;font-family:Mahdalena;-inkscape-font-specification:Mahdalena">Voor mama Marlies</flowPara></flowRoot>    <flowRoot
       transform="matrix(0.26458333,0,0,0.26458333,99.958804,-25.759102)"
       style="font-style:normal;font-weight:normal;font-size:40px;line-height:1.25;font-family:sans-serif;letter-spacing:0px;word-spacing:0px;fill:#000000;fill-opacity:1;stroke:none"
       id="flowRoot838"
       xml:space="preserve"><flowRegion
         id="flowRegion834"><rect
           y="1058.2677"
           x="1421.1024"
           height="164.44987"
           width="710.98029"
           id="rect832" /></flowRegion><flowPara
         style="font-style:normal;font-variant:normal;font-weight:normal;font-stretch:normal;font-size:53.33333588px;font-family:Mahdalena;-inkscape-font-specification:Mahdalena"
         id="flowPara836">Moederdag 2019</flowPara></flowRoot>    <flowRoot
       xml:space="preserve"
       id="flowRoot840"
       style="font-style:normal;font-weight:normal;font-size:40px;line-height:1.25;font-family:sans-serif;letter-spacing:0px;word-spacing:0px;fill:#000000;fill-opacity:1;stroke:none"
       transform="matrix(-0.26458333,0,0,-0.26458333,809.57455,230.84127)"><flowRegion
         id="flowRegion842"><rect
           id="rect844"
           width="604.72443"
           height="75.590569"
           x="1405.9843"
           y="408.18896" /></flowRegion><flowPara
         id="flowPara846"
         style="font-style:normal;font-variant:normal;font-weight:normal;font-stretch:normal;font-size:64px;font-family:'NO STRESS PERSONAL USE';-inkscape-font-specification:'NO STRESS PERSONAL USE'">Created with love</flowPara></flowRoot>  </g>
</svg>
